<svg width="102" height="49" viewBox="0 0 102 49" fill="none" xmlns="http://www.w3.org/2000/svg">
<g filter="url(#filter0_d_1_372)">
<rect x="5.6" y="5.60001" width="90" height="37" rx="18.5" fill="#111827"/>
<rect x="5.6" y="5.60001" width="90" height="37" rx="18.5" stroke="#1F2933" stroke-width="2"/>
</g>
<path d="M81.6 15.6H17.6C14.2863 15.6 11.6 18.2863 11.6 21.6V25.6C11.6 28.9137 14.2863 31.6 17.6 31.6H81.6C84.9137 31.6 87.6 28.9137 87.6 25.6V21.6C87.6 18.2863 84.9137 15.6 81.6 15.6Z" fill="#1F2933"/>
<path d="M57.6 16.6H41.6C39.3909 16.6 37.6 18.3909 37.6 20.6V26.6C37.6 28.8091 39.3909 30.6 41.6 30.6H57.6C59.8091 30.6 61.6 28.8091 61.6 26.6V20.6C61.6 18.3909 59.8091 16.6 57.6 16.6Z" fill="#4B5563"/>
<path d="M54.6 18.6H44.6C42.9431 18.6 41.6 19.9432 41.6 21.6V25.6C41.6 27.2569 42.9431 28.6 44.6 28.6H54.6C56.2569 28.6 57.6 27.2569 57.6 25.6V21.6C57.6 19.9432 56.2569 18.6 54.6 18.6Z" fill="#9CA3AF"/>
<path d="M23.6 18.6H19.6C18.4954 18.6 17.6 19.4954 17.6 20.6V26.6C17.6 27.7046 18.4954 28.6 19.6 28.6H23.6C24.7046 28.6 25.6 27.7046 25.6 26.6V20.6C25.6 19.4954 24.7046 18.6 23.6 18.6Z" fill="#4B5563"/>
<path d="M79.6 18.6H75.6C74.4954 18.6 73.6 19.4954 73.6 20.6V26.6C73.6 27.7046 74.4954 28.6 75.6 28.6H79.6C80.7046 28.6 81.6 27.7046 81.6 26.6V20.6C81.6 19.4954 80.7046 18.6 79.6 18.6Z" fill="#4B5563"/>
<path d="M33.6 25.6C34.7046 25.6 35.6 24.7046 35.6 23.6C35.6 22.4954 34.7046 21.6 33.6 21.6C32.4954 21.6 31.6 22.4954 31.6 23.6C31.6 24.7046 32.4954 25.6 33.6 25.6Z" fill="#E5E7EB"/>
<path d="M49.6 25.6C50.7046 25.6 51.6 24.7046 51.6 23.6C51.6 22.4954 50.7046 21.6 49.6 21.6C48.4954 21.6 47.6 22.4954 47.6 23.6C47.6 24.7046 48.4954 25.6 49.6 25.6Z" fill="#E5E7EB"/>
<path d="M65.6 25.6C66.7046 25.6 67.6 24.7046 67.6 23.6C67.6 22.4954 66.7046 21.6 65.6 21.6C64.4954 21.6 63.6 22.4954 63.6 23.6C63.6 24.7046 64.4954 25.6 65.6 25.6Z" fill="#E5E7EB"/>
<path d="M83.85 24.101C83.8501 24.1017 83.851 24.1035 83.852 24.1059C83.854 24.1108 83.8586 24.1203 83.8695 24.1332C83.8923 24.1601 83.9349 24.1951 84.0043 24.2299C84.1437 24.2996 84.3543 24.35 84.6 24.35H90.6C90.8457 24.35 91.0563 24.2996 91.1957 24.2299C91.2651 24.1951 91.3077 24.1601 91.3305 24.1332C91.3414 24.1203 91.346 24.1108 91.348 24.1059C91.349 24.1035 91.3499 24.1017 91.35 24.101V22.099C91.3499 22.0983 91.349 22.0965 91.348 22.0941C91.346 22.0892 91.3414 22.0797 91.3305 22.0668C91.3077 22.0399 91.2651 22.0049 91.1957 21.9701C91.0563 21.9004 90.8457 21.85 90.6 21.85H84.6C84.3543 21.85 84.1437 21.9004 84.0043 21.9701C83.9349 22.0049 83.8923 22.0399 83.8695 22.0668C83.8586 22.0797 83.854 22.0892 83.852 22.0941C83.851 22.0965 83.8501 22.0983 83.85 22.099V24.101Z" fill="#4B5563" stroke="black" stroke-width="0.5"/>
<path d="M7.85 24.101C7.85015 24.1017 7.85098 24.1035 7.85195 24.1059C7.85397 24.1108 7.85862 24.1203 7.86953 24.1332C7.89231 24.1601 7.93491 24.1951 8.0043 24.2299C8.14373 24.2996 8.35425 24.35 8.6 24.35H14.6C14.8457 24.35 15.0563 24.2996 15.1957 24.2299C15.2651 24.1951 15.3077 24.1601 15.3305 24.1332C15.3414 24.1203 15.346 24.1108 15.348 24.1059C15.349 24.1035 15.3499 24.1017 15.35 24.101V22.099C15.3499 22.0983 15.349 22.0965 15.348 22.0941C15.346 22.0892 15.3414 22.0797 15.3305 22.0668C15.3077 22.0399 15.2651 22.0049 15.1957 21.9701C15.0563 21.9004 14.8457 21.85 14.6 21.85H8.6C8.35425 21.85 8.14373 21.9004 8.0043 21.9701C7.93491 22.0049 7.89231 22.0399 7.86953 22.0668C7.85862 22.0797 7.85397 22.0892 7.85195 22.0941C7.85098 22.0965 7.85015 22.0983 7.85 22.099V24.101Z" fill="#4B5563" stroke="black" stroke-width="0.5"/>
<path d="M35.8 6.59998H30.4C29.4059 6.59998 28.6 7.31632 28.6 8.19998V13C28.6 13.8836 29.4059 14.6 30.4 14.6H35.8C36.7941 14.6 37.6 13.8836 37.6 13V8.19998C37.6 7.31632 36.7941 6.59998 35.8 6.59998Z" fill="#4B5563"/>
<path d="M69.7997 6.73326H64.3997C63.4056 6.73326 62.5997 7.44961 62.5997 8.33326V13.1333C62.5997 14.0169 63.4056 14.7333 64.3997 14.7333H69.7997C70.7939 14.7333 71.5997 14.0169 71.5997 13.1333V8.33326C71.5997 7.44961 70.7939 6.73326 69.7997 6.73326Z" fill="#4B5563"/>
<path d="M34.1206 9.35001C34.1213 9.34986 34.1231 9.34902 34.1255 9.34805C34.1304 9.34603 34.1399 9.34139 34.1528 9.33047C34.1797 9.3077 34.2147 9.2651 34.2495 9.19571C34.3192 9.05627 34.3696 8.84575 34.3696 8.60001V2.60001C34.3696 2.35426 34.3192 2.14374 34.2495 2.0043C34.2147 1.93491 34.1797 1.89232 34.1528 1.86954C34.1399 1.85863 34.1304 1.85398 34.1255 1.85196C34.1231 1.85099 34.1213 1.85015 34.1206 1.85001H32.1186C32.1179 1.85015 32.1161 1.85099 32.1137 1.85196C32.1088 1.85398 32.0993 1.85863 32.0864 1.86954C32.0595 1.89232 32.0245 1.93491 31.9897 2.0043C31.92 2.14374 31.8696 2.35426 31.8696 2.60001V8.60001C31.8696 8.84575 31.92 9.05627 31.9897 9.19571C32.0245 9.2651 32.0595 9.3077 32.0864 9.33047C32.0993 9.34139 32.1088 9.34603 32.1137 9.34805C32.1161 9.34902 32.1179 9.34986 32.1186 9.35001H34.1206Z" fill="#4B5563" stroke="black" stroke-width="0.5"/>
<path d="M68.1203 9.48329C68.121 9.48314 68.1228 9.48231 68.1252 9.48134C68.1301 9.47932 68.1396 9.47467 68.1525 9.46376C68.1794 9.44098 68.2145 9.39838 68.2492 9.32899C68.3189 9.18956 68.3693 8.97904 68.3693 8.73329V2.73329C68.3693 2.48754 68.3189 2.27702 68.2492 2.13759C68.2145 2.0682 68.1794 2.0256 68.1525 2.00282C68.1396 1.99191 68.1301 1.98727 68.1252 1.98524C68.1228 1.98428 68.121 1.98344 68.1203 1.98329H66.1184C66.1176 1.98344 66.1159 1.98428 66.1135 1.98524C66.1085 1.98727 66.099 1.99191 66.0861 2.00282C66.0592 2.0256 66.0242 2.0682 65.9894 2.13759C65.9197 2.27702 65.8693 2.48754 65.8693 2.73329V8.73329C65.8693 8.97904 65.9197 9.18956 65.9894 9.32899C66.0242 9.39838 66.0592 9.44098 66.0861 9.46376C66.099 9.47467 66.1085 9.47932 66.1135 9.48134C66.1159 9.48231 66.1176 9.48314 66.1184 9.48329H68.1203Z" fill="#4B5563" stroke="black" stroke-width="0.5"/>
<path d="M52.6 32.6H46.6C45.4954 32.6 44.6 33.3164 44.6 34.2V39C44.6 39.8837 45.4954 40.6 46.6 40.6H52.6C53.7046 40.6 54.6 39.8837 54.6 39V34.2C54.6 33.3164 53.7046 32.6 52.6 32.6Z" fill="#4B5563"/>
<path d="M50.933 37.85H48.267C48.1925 37.85 48.0942 37.8954 48.0033 38.0316C47.9136 38.1662 47.85 38.3664 47.85 38.6V44.6C47.85 44.8337 47.9136 45.0338 48.0033 45.1684C48.0942 45.3046 48.1925 45.35 48.267 45.35H50.933C51.0075 45.35 51.1058 45.3046 51.1967 45.1684C51.2863 45.0338 51.35 44.8337 51.35 44.6V38.6C51.35 38.3664 51.2863 38.1662 51.1967 38.0316C51.1058 37.8954 51.0075 37.85 50.933 37.85Z" fill="#4B5563" stroke="black" stroke-width="0.5"/>
<defs>
<filter id="filter0_d_1_372" x="-1.43051e-06" y="6.19888e-06" width="101.2" height="48.2" filterUnits="userSpaceOnUse" color-interpolation-filters="sRGB">
<feFlood flood-opacity="0" result="BackgroundImageFix"/>
<feColorMatrix in="SourceAlpha" type="matrix" values="0 0 0 0 0 0 0 0 0 0 0 0 0 0 0 0 0 0 127 0" result="hardAlpha"/>
<feMorphology radius="1" operator="dilate" in="SourceAlpha" result="effect1_dropShadow_1_372"/>
<feOffset/>
<feGaussianBlur stdDeviation="1.8"/>
<feComposite in2="hardAlpha" operator="out"/>
<feColorMatrix type="matrix" values="0 0 0 0 0 0 0 0 0 0 0 0 0 0 0 0 0 0 0.25 0"/>
<feBlend mode="normal" in2="BackgroundImageFix" result="effect1_dropShadow_1_372"/>
<feBlend mode="normal" in="SourceGraphic" in2="effect1_dropShadow_1_372" result="shape"/>
</filter>
</defs>
</svg>
